<svg width="704" height="72" viewBox="0 0 704 72" fill="none" xmlns="http://www.w3.org/2000/svg">
<g opacity="0.3" clip-path="url(#clip0_2330_54551)">
<path d="M660.817 15.5235H669.454C669.454 11.7126 672.552 8.61426 676.363 8.61426C680.174 8.61426 683.272 11.7126 683.272 15.5235H691.909C694.77 15.5235 697.091 17.8446 697.091 20.7055V58.7065C697.091 61.5674 694.77 63.8885 691.909 63.8885H660.817C657.956 63.8885 655.635 61.5674 655.635 58.7065V20.7055C655.635 17.8446 657.956 15.5235 660.817 15.5235ZM676.363 12.9326C674.927 12.9326 673.772 14.0877 673.772 15.5235C673.772 16.9594 674.927 18.1145 676.363 18.1145C677.799 18.1145 678.954 16.9594 678.954 15.5235C678.954 14.0877 677.799 12.9326 676.363 12.9326ZM665.999 45.7516C665.999 46.2266 666.388 46.6153 666.863 46.6153H672.908V52.6609C672.908 53.1359 673.297 53.5246 673.772 53.5246H678.954C679.429 53.5246 679.818 53.1359 679.818 52.6609V46.6153H685.863C686.338 46.6153 686.727 46.2266 686.727 45.7516V40.5697C686.727 40.0947 686.338 39.706 685.863 39.706H679.818V33.6604C679.818 33.1854 679.429 32.7967 678.954 32.7967H673.772C673.297 32.7967 672.908 33.1854 672.908 33.6604V39.706H666.863C666.388 39.706 665.999 40.0947 665.999 40.5697V45.7516ZM665.999 25.0238C665.999 25.4988 666.388 25.8875 666.863 25.8875H685.863C686.338 25.8875 686.727 25.4988 686.727 25.0238V23.2965C686.727 22.8215 686.338 22.4328 685.863 22.4328H666.863C666.388 22.4328 665.999 22.8215 665.999 23.2965V25.0238Z" fill="#FCD9CA"/>
</g>
<g opacity="0.3" clip-path="url(#clip1_2330_54551)">
<path d="M585.84 40.4833L598.42 22.5096C600.56 19.458 603.967 17.8266 607.422 17.8266C609.59 17.8266 611.788 18.4696 613.707 19.813C615.598 21.1373 616.941 22.9606 617.689 24.9758C617.968 19.2852 622.622 14.7558 628.38 14.7558C634.32 14.7558 639.127 19.5635 639.127 25.5036V46.9991C639.127 52.9392 634.32 57.7469 628.38 57.7469C622.44 57.7469 617.632 52.9392 617.632 46.9991V32.6912C617.315 33.5164 616.931 34.3321 616.404 35.0902L603.813 53.0639C601.683 56.1155 598.276 57.7469 594.812 57.7469C592.634 57.7469 590.446 57.1039 588.527 55.7605C583.565 52.2866 582.366 45.4445 585.84 40.4833ZM623.773 36.2514H632.986V25.5036C632.986 22.9606 630.923 20.8974 628.38 20.8974C625.837 20.8974 623.773 22.9606 623.773 25.5036V36.2514ZM605.08 40.5601L611.375 31.5684C612.114 30.5128 612.402 29.2269 612.172 27.9602C611.951 26.6935 611.241 25.5804 610.185 24.8415C609.37 24.2657 608.41 23.9682 607.422 23.9682C605.838 23.9682 604.36 24.7359 603.458 26.0314L597.163 35.023L605.08 40.5601Z" fill="#FCD9CA"/>
</g>
<g opacity="0.3" clip-path="url(#clip2_2330_54551)">
<path d="M552.503 27.4858L546.49 33.5098C546.155 33.8444 546.155 34.395 546.49 34.7297L547.71 35.9496C548.044 36.2843 548.595 36.2843 548.93 35.9496L554.943 29.9256L559.833 34.8161L553.809 40.8401C553.475 41.1748 553.475 41.7253 553.809 42.06L555.029 43.2799C555.364 43.6146 555.914 43.6146 556.249 43.2799L562.273 37.2451L565.123 40.0952C566.991 41.9628 567.887 44.5322 567.606 47.1556L566.84 54.0217L574.008 61.1901C574.343 61.5247 574.343 62.0753 574.008 62.41L572.788 63.6299C572.454 63.9646 571.903 63.9646 571.568 63.6299L564.411 56.4723L557.545 57.2388C554.964 57.5195 552.373 56.6559 550.484 54.7558L530.847 35.1183L545.497 20.4685L552.503 27.4858ZM519.231 17.4133L527.781 8.86309C528.115 8.52842 528.666 8.52842 529.001 8.86309L530.221 10.083C530.555 10.4177 530.555 10.9683 530.221 11.3029L527.165 14.3581L532.056 19.2486L538.166 13.1382L540.002 11.3029C540.336 10.9683 540.887 10.9683 541.221 11.3029L544.881 14.9627C545.216 15.2974 545.216 15.8479 544.881 16.1826L543.046 18.0179L528.396 32.6893L526.561 34.5246C526.226 34.8592 525.676 34.8592 525.341 34.5246L521.681 30.854C521.347 30.5194 521.347 29.9688 521.681 29.6341L529.616 21.6992L524.726 16.8088L521.67 19.864C521.336 20.1986 520.785 20.1986 520.45 19.864L519.231 18.644C518.896 18.2986 518.896 17.7588 519.231 17.4133Z" fill="#FCD9CA"/>
</g>
<g opacity="0.3" clip-path="url(#clip3_2330_54551)">
<path d="M481.744 32.7964C490.317 32.7964 502.472 46.0493 502.472 54.4149C502.472 58.1826 499.578 60.4335 494.727 60.4335C489.455 60.4335 485.973 57.7259 481.744 57.7259C477.479 57.7259 473.988 60.4335 468.761 60.4335C463.911 60.4335 461.017 58.1826 461.017 54.4149C461.017 46.0493 473.171 32.7964 481.744 32.7964ZM497.644 31.4351C498.767 27.6943 502.226 25.2718 505.37 26.0231C508.514 26.7745 510.151 30.4159 509.028 34.1567C507.906 37.8974 504.447 40.32 501.303 39.5686C498.159 38.8172 496.522 35.1758 497.644 31.4351ZM488.498 29.1917C485.158 28.3129 483.487 23.8003 484.765 19.1128C486.043 14.4253 489.787 11.3388 493.127 12.2176C496.468 13.0963 498.139 17.6089 496.861 22.2965C495.582 26.984 491.837 30.0716 488.498 29.1917ZM458.12 26.0242C461.264 25.2728 464.722 27.6954 465.845 31.4361C466.968 35.1769 465.331 38.8183 462.187 39.5696C459.043 40.321 455.585 37.8985 454.461 34.1577C453.339 30.417 454.976 26.7756 458.12 26.0242ZM474.991 29.1917C471.65 30.0705 467.906 26.984 466.628 22.2965C465.35 17.6089 467.021 13.0974 470.361 12.2176C473.702 11.3377 477.446 14.4253 478.724 19.1128C480.002 23.8003 478.331 28.3129 474.991 29.1917Z" fill="#FCD9CA"/>
</g>
<g opacity="0.3" clip-path="url(#clip4_2330_54551)">
<path d="M401.327 15.5235H409.963C409.963 11.7126 413.062 8.61426 416.873 8.61426C420.683 8.61426 423.782 11.7126 423.782 15.5235H432.418C435.279 15.5235 437.6 17.8446 437.6 20.7055V58.7065C437.6 61.5674 435.279 63.8885 432.418 63.8885H401.327C398.466 63.8885 396.145 61.5674 396.145 58.7065V20.7055C396.145 17.8446 398.466 15.5235 401.327 15.5235ZM416.873 12.9326C415.437 12.9326 414.282 14.0877 414.282 15.5235C414.282 16.9594 415.437 18.1145 416.873 18.1145C418.308 18.1145 419.463 16.9594 419.463 15.5235C419.463 14.0877 418.308 12.9326 416.873 12.9326ZM406.509 45.7516C406.509 46.2266 406.897 46.6153 407.372 46.6153H413.418V52.6609C413.418 53.1359 413.807 53.5246 414.282 53.5246H419.463C419.939 53.5246 420.327 53.1359 420.327 52.6609V46.6153H426.373C426.848 46.6153 427.236 46.2266 427.236 45.7516V40.5697C427.236 40.0947 426.848 39.706 426.373 39.706H420.327V33.6604C420.327 33.1854 419.939 32.7967 419.463 32.7967H414.282C413.807 32.7967 413.418 33.1854 413.418 33.6604V39.706H407.372C406.897 39.706 406.509 40.0947 406.509 40.5697V45.7516ZM406.509 25.0238C406.509 25.4988 406.897 25.8875 407.372 25.8875H426.373C426.848 25.8875 427.236 25.4988 427.236 25.0238V23.2965C427.236 22.8215 426.848 22.4328 426.373 22.4328H407.372C406.897 22.4328 406.509 22.8215 406.509 23.2965V25.0238Z" fill="#FCD9CA"/>
</g>
<g opacity="0.3" clip-path="url(#clip5_2330_54551)">
<path d="M326.349 40.4833L338.93 22.5096C341.07 19.458 344.477 17.8266 347.931 17.8266C350.1 17.8266 352.298 18.4696 354.217 19.813C356.107 21.1373 357.451 22.9606 358.199 24.9758C358.478 19.2852 363.132 14.7558 368.889 14.7558C374.83 14.7558 379.637 19.5635 379.637 25.5036V46.9991C379.637 52.9392 374.83 57.7469 368.889 57.7469C362.949 57.7469 358.142 52.9392 358.142 46.9991V32.6912C357.825 33.5164 357.441 34.3321 356.913 35.0902L344.323 53.0639C342.193 56.1155 338.786 57.7469 335.322 57.7469C333.144 57.7469 330.956 57.1039 329.036 55.7605C324.075 52.2866 322.876 45.4445 326.349 40.4833ZM364.283 36.2514H373.496V25.5036C373.496 22.9606 371.432 20.8974 368.889 20.8974C366.346 20.8974 364.283 22.9606 364.283 25.5036V36.2514ZM345.59 40.5601L351.885 31.5684C352.624 30.5128 352.912 29.2269 352.681 27.9602C352.461 26.6935 351.751 25.5804 350.695 24.8415C349.879 24.2657 348.92 23.9682 347.931 23.9682C346.348 23.9682 344.87 24.7359 343.968 26.0314L337.673 35.023L345.59 40.5601Z" fill="#FCD9CA"/>
</g>
<g opacity="0.3" clip-path="url(#clip6_2330_54551)">
<path d="M293.013 27.4858L286.999 33.5098C286.665 33.8444 286.665 34.395 286.999 34.7297L288.219 35.9496C288.554 36.2843 289.105 36.2843 289.439 35.9496L295.453 29.9256L300.343 34.8161L294.319 40.8401C293.984 41.1748 293.984 41.7253 294.319 42.06L295.539 43.2799C295.874 43.6146 296.424 43.6146 296.759 43.2799L302.783 37.2451L305.633 40.0952C307.501 41.9628 308.397 44.5322 308.116 47.1556L307.349 54.0217L314.518 61.1901C314.852 61.5247 314.852 62.0753 314.518 62.41L313.298 63.6299C312.963 63.9646 312.413 63.9646 312.078 63.6299L304.92 56.4723L298.054 57.2388C295.474 57.5195 292.883 56.6559 290.994 54.7558L271.356 35.1183L286.006 20.4685L293.013 27.4858ZM259.74 17.4133L268.29 8.86309C268.625 8.52842 269.176 8.52842 269.51 8.86309L270.73 10.083C271.065 10.4177 271.065 10.9683 270.73 11.3029L267.675 14.3581L272.566 19.2486L278.676 13.1382L280.511 11.3029C280.846 10.9683 281.396 10.9683 281.731 11.3029L285.391 14.9627C285.726 15.2974 285.726 15.8479 285.391 16.1826L283.556 18.0179L268.906 32.6893L267.07 34.5246C266.736 34.8592 266.185 34.8592 265.851 34.5246L262.191 30.854C261.856 30.5194 261.856 29.9688 262.191 29.6341L270.126 21.6992L265.235 16.8088L262.18 19.864C261.845 20.1986 261.295 20.1986 260.96 19.864L259.74 18.644C259.406 18.2986 259.406 17.7588 259.74 17.4133Z" fill="#FCD9CA"/>
</g>
<g opacity="0.3" clip-path="url(#clip7_2330_54551)">
<path d="M222.254 32.7964C230.827 32.7964 242.982 46.0493 242.982 54.4149C242.982 58.1826 240.087 60.4335 235.237 60.4335C229.964 60.4335 226.483 57.7259 222.254 57.7259C217.989 57.7259 214.497 60.4335 209.271 60.4335C204.42 60.4335 201.526 58.1826 201.526 54.4149C201.526 46.0493 213.681 32.7964 222.254 32.7964ZM238.154 31.4351C239.277 27.6943 242.736 25.2718 245.879 26.0231C249.023 26.7745 250.661 30.4159 249.538 34.1567C248.415 37.8974 244.956 40.32 241.813 39.5686C238.669 38.8172 237.031 35.1758 238.154 31.4351ZM229.008 29.1917C225.668 28.3129 223.996 23.8003 225.275 19.1128C226.553 14.4253 230.297 11.3388 233.637 12.2176C236.977 13.0963 238.648 17.6089 237.37 22.2965C236.092 26.984 232.347 30.0716 229.008 29.1917ZM198.63 26.0242C201.773 25.2728 205.231 27.6954 206.355 31.4361C207.478 35.1769 205.84 38.8183 202.696 39.5696C199.553 40.321 196.095 37.8985 194.971 34.1577C193.848 30.417 195.486 26.7756 198.63 26.0242ZM215.5 29.1917C212.16 30.0705 208.416 26.984 207.138 22.2965C205.859 17.6089 207.531 13.0974 210.871 12.2176C214.211 11.3377 217.955 14.4253 219.233 19.1128C220.511 23.8003 218.84 28.3129 215.5 29.1917Z" fill="#FCD9CA"/>
</g>
<g opacity="0.3" clip-path="url(#clip8_2330_54551)">
<path d="M141.836 15.5235H150.473C150.473 11.7126 153.571 8.61426 157.382 8.61426C161.193 8.61426 164.292 11.7126 164.292 15.5235H172.928C175.789 15.5235 178.11 17.8446 178.11 20.7055V58.7065C178.11 61.5674 175.789 63.8885 172.928 63.8885H141.836C138.976 63.8885 136.654 61.5674 136.654 58.7065V20.7055C136.654 17.8446 138.976 15.5235 141.836 15.5235ZM157.382 12.9326C155.946 12.9326 154.791 14.0877 154.791 15.5235C154.791 16.9594 155.946 18.1145 157.382 18.1145C158.818 18.1145 159.973 16.9594 159.973 15.5235C159.973 14.0877 158.818 12.9326 157.382 12.9326ZM147.018 45.7516C147.018 46.2266 147.407 46.6153 147.882 46.6153H153.928V52.6609C153.928 53.1359 154.316 53.5246 154.791 53.5246H159.973C160.448 53.5246 160.837 53.1359 160.837 52.6609V46.6153H166.883C167.358 46.6153 167.746 46.2266 167.746 45.7516V40.5697C167.746 40.0947 167.358 39.706 166.883 39.706H160.837V33.6604C160.837 33.1854 160.448 32.7967 159.973 32.7967H154.791C154.316 32.7967 153.928 33.1854 153.928 33.6604V39.706H147.882C147.407 39.706 147.018 40.0947 147.018 40.5697V45.7516ZM147.018 25.0238C147.018 25.4988 147.407 25.8875 147.882 25.8875H166.883C167.358 25.8875 167.746 25.4988 167.746 25.0238V23.2965C167.746 22.8215 167.358 22.4328 166.883 22.4328H147.882C147.407 22.4328 147.018 22.8215 147.018 23.2965V25.0238Z" fill="#FCD9CA"/>
</g>
<g opacity="0.3" clip-path="url(#clip9_2330_54551)">
<path d="M66.8589 40.4833L79.4396 22.5096C81.5795 19.458 84.9862 17.8266 88.4408 17.8266C90.6096 17.8266 92.8071 18.4696 94.7263 19.813C96.6168 21.1373 97.9603 22.9606 98.7088 24.9758C98.9871 19.2852 103.641 14.7558 109.399 14.7558C115.339 14.7558 120.147 19.5635 120.147 25.5036V46.9991C120.147 52.9392 115.339 57.7469 109.399 57.7469C103.459 57.7469 98.6512 52.9392 98.6512 46.9991V32.6912C98.3345 33.5164 97.9507 34.3321 97.4229 35.0902L84.8326 53.0639C82.7023 56.1155 79.2956 57.7469 75.8314 57.7469C73.6531 57.7469 71.4651 57.1039 69.5459 55.7605C64.5846 52.2866 63.3851 45.4445 66.8589 40.4833ZM104.793 36.2514H114.005V25.5036C114.005 22.9606 111.942 20.8974 109.399 20.8974C106.856 20.8974 104.793 22.9606 104.793 25.5036V36.2514ZM86.0993 40.5601L92.3945 31.5684C93.1334 30.5128 93.4213 29.2269 93.191 27.9602C92.9702 26.6935 92.2601 25.5804 91.2045 24.8415C90.3889 24.2657 89.4292 23.9682 88.4408 23.9682C86.8575 23.9682 85.3796 24.7359 84.4776 26.0314L78.1825 35.023L86.0993 40.5601Z" fill="#FCD9CA"/>
</g>
<g opacity="0.3" clip-path="url(#clip10_2330_54551)">
<path d="M33.5224 27.4858L27.5092 33.5098C27.1745 33.8444 27.1745 34.395 27.5092 34.7297L28.7291 35.9496C29.0638 36.2843 29.6144 36.2843 29.949 35.9496L35.9623 29.9256L40.8527 34.8161L34.8287 40.8401C34.4941 41.1748 34.4941 41.7253 34.8287 42.06L36.0486 43.2799C36.3833 43.6146 36.9339 43.6146 37.2686 43.2799L43.2926 37.2451L46.1427 40.0952C48.0103 41.9628 48.9064 44.5322 48.6257 47.1556L47.8592 54.0217L55.0276 61.1901C55.3622 61.5247 55.3622 62.0753 55.0276 62.41L53.8076 63.6299C53.473 63.9646 52.9224 63.9646 52.5877 63.6299L45.4301 56.4723L38.5641 57.2388C35.9839 57.5195 33.3929 56.6559 31.5036 54.7558L11.8662 35.1183L26.516 20.4685L33.5224 27.4858ZM0.24995 17.4133L8.80018 8.86309C9.13485 8.52842 9.68543 8.52842 10.0201 8.86309L11.24 10.083C11.5747 10.4177 11.5747 10.9683 11.24 11.3029L8.18483 14.3581L13.0753 19.2486L19.1857 13.1382L21.021 11.3029C21.3556 10.9683 21.9062 10.9683 22.2409 11.3029L25.9006 14.9627C26.2353 15.2974 26.2353 15.8479 25.9006 16.1826L24.0654 18.0179L9.41554 32.6893L7.58027 34.5246C7.2456 34.8592 6.69501 34.8592 6.36034 34.5246L2.70059 30.854C2.36592 30.5194 2.36592 29.9688 2.70059 29.6341L10.6355 21.6992L5.74499 16.8088L2.68979 19.864C2.35512 20.1986 1.80454 20.1986 1.46987 19.864L0.24995 18.644C-0.0847168 18.2986 -0.0847168 17.7588 0.24995 17.4133Z" fill="#FCD9CA"/>
</g>
<defs>
<clipPath id="clip0_2330_54551">
<rect width="55.2742" height="55.2742" fill="white" transform="matrix(-1 0 0 1 704 8.61426)"/>
</clipPath>
<clipPath id="clip1_2330_54551">
<rect width="55.2742" height="55.2742" fill="white" transform="matrix(-1 0 0 1 639.127 8.61426)"/>
</clipPath>
<clipPath id="clip2_2330_54551">
<rect width="55.2742" height="55.2742" fill="white" transform="matrix(-1 0 0 1 574.255 8.61426)"/>
</clipPath>
<clipPath id="clip3_2330_54551">
<rect width="55.2742" height="55.2742" fill="white" transform="matrix(-1 0 0 1 509.382 8.61426)"/>
</clipPath>
<clipPath id="clip4_2330_54551">
<rect width="55.2742" height="55.2742" fill="white" transform="matrix(-1 0 0 1 444.51 8.61426)"/>
</clipPath>
<clipPath id="clip5_2330_54551">
<rect width="55.2742" height="55.2742" fill="white" transform="matrix(-1 0 0 1 379.637 8.61426)"/>
</clipPath>
<clipPath id="clip6_2330_54551">
<rect width="55.2742" height="55.2742" fill="white" transform="matrix(-1 0 0 1 314.764 8.61426)"/>
</clipPath>
<clipPath id="clip7_2330_54551">
<rect width="55.2742" height="55.2742" fill="white" transform="matrix(-1 0 0 1 249.892 8.61426)"/>
</clipPath>
<clipPath id="clip8_2330_54551">
<rect width="55.2742" height="55.2742" fill="white" transform="matrix(-1 0 0 1 185.019 8.61426)"/>
</clipPath>
<clipPath id="clip9_2330_54551">
<rect width="55.2742" height="55.2742" fill="white" transform="matrix(-1 0 0 1 120.147 8.61426)"/>
</clipPath>
<clipPath id="clip10_2330_54551">
<rect width="55.2742" height="55.2742" fill="white" transform="matrix(-1 0 0 1 55.2742 8.61426)"/>
</clipPath>
</defs>
</svg>
