<svg width="24" height="25" viewBox="0 0 24 25" fill="none" xmlns="http://www.w3.org/2000/svg">
<path d="M20 19.8047V16.8047H7C5.34315 16.8047 4 18.1478 4 19.8047M8.8 22.8047H16.8C17.9201 22.8047 18.4802 22.8047 18.908 22.5867C19.2843 22.395 19.5903 22.089 19.782 21.7127C20 21.2848 20 20.7248 20 19.6047V6.00469C20 4.88458 20 4.32453 19.782 3.89671C19.5903 3.52038 19.2843 3.21442 18.908 3.02267C18.4802 2.80469 17.9201 2.80469 16.8 2.80469H8.8C7.11984 2.80469 6.27976 2.80469 5.63803 3.13167C5.07354 3.41929 4.6146 3.87823 4.32698 4.44272C4 5.08445 4 5.92453 4 7.60469V18.0047C4 19.6848 4 20.5249 4.32698 21.1667C4.6146 21.7311 5.07354 22.1901 5.63803 22.4777C6.27976 22.8047 7.11984 22.8047 8.8 22.8047Z" stroke="#403F3F" stroke-width="2" stroke-linecap="round" stroke-linejoin="round"/>
</svg>
