<svg width="24" height="25" viewBox="0 0 24 25" fill="none" xmlns="http://www.w3.org/2000/svg">
<path d="M9 11.8047L12 14.8047L22 4.80469M16 3.80469H7.8C6.11984 3.80469 5.27976 3.80469 4.63803 4.13167C4.07354 4.41929 3.6146 4.87823 3.32698 5.44272C3 6.08445 3 6.92453 3 8.60469V17.0047C3 18.6848 3 19.5249 3.32698 20.1667C3.6146 20.7311 4.07354 21.1901 4.63803 21.4777C5.27976 21.8047 6.11984 21.8047 7.8 21.8047H16.2C17.8802 21.8047 18.7202 21.8047 19.362 21.4777C19.9265 21.1901 20.3854 20.7311 20.673 20.1667C21 19.5249 21 18.6848 21 17.0047V12.8047" stroke="#403F3F" stroke-width="2" stroke-linecap="round" stroke-linejoin="round"/>
</svg>
