<svg width="29" height="29" viewBox="0 0 29 29" fill="none" xmlns="http://www.w3.org/2000/svg">
<path d="M20.3949 11.8893V9.55599C20.3949 6.33433 17.7833 3.72266 14.5616 3.72266C11.3399 3.72266 8.72827 6.33433 8.72827 9.55599V11.8893M14.5616 17.1393V19.4727M10.8283 24.7227H18.2949C20.2551 24.7227 21.2352 24.7227 21.9839 24.3412C22.6425 24.0056 23.1779 23.4702 23.5135 22.8116C23.8949 22.0629 23.8949 21.0828 23.8949 19.1227V17.4893C23.8949 15.5291 23.8949 14.549 23.5135 13.8004C23.1779 13.1418 22.6425 12.6064 21.9839 12.2708C21.2352 11.8893 20.2551 11.8893 18.2949 11.8893H10.8283C8.86809 11.8893 7.888 11.8893 7.1393 12.2708C6.48074 12.6064 5.94531 13.1418 5.60975 13.8004C5.22827 14.549 5.22827 15.5291 5.22827 17.4893V19.1227C5.22827 21.0828 5.22827 22.0629 5.60975 22.8116C5.94531 23.4702 6.48074 24.0056 7.1393 24.3412C7.888 24.7227 8.86809 24.7227 10.8283 24.7227Z" stroke="#344054" stroke-width="2" stroke-linecap="round" stroke-linejoin="round"/>
</svg>
