<svg width="21" height="20" viewBox="0 0 21 20" fill="none" xmlns="http://www.w3.org/2000/svg">
<g id="plus-square">
<path id="Icon" d="M10.0254 6.66667V13.3333M6.69206 10H13.3587M6.52539 17.5H13.5254C14.9255 17.5 15.6256 17.5 16.1604 17.2275C16.6308 16.9878 17.0132 16.6054 17.2529 16.135C17.5254 15.6002 17.5254 14.9001 17.5254 13.5V6.5C17.5254 5.09987 17.5254 4.3998 17.2529 3.86502C17.0132 3.39462 16.6308 3.01217 16.1604 2.77248C15.6256 2.5 14.9255 2.5 13.5254 2.5H6.52539C5.12526 2.5 4.42519 2.5 3.89041 2.77248C3.42001 3.01217 3.03756 3.39462 2.79787 3.86502C2.52539 4.3998 2.52539 5.09987 2.52539 6.5V13.5C2.52539 14.9001 2.52539 15.6002 2.79787 16.135C3.03756 16.6054 3.42001 16.9878 3.89041 17.2275C4.42519 17.5 5.12526 17.5 6.52539 17.5Z" stroke="#2272AF" stroke-width="1.66667" stroke-linecap="round" stroke-linejoin="round"/>
</g>
</svg>
