<svg width="307" height="52" viewBox="0 0 307 52" fill="none" xmlns="http://www.w3.org/2000/svg">
<g clip-path="url(#clip0_2330_54578)">
<path d="M168.266 31.1223V0.593903H159.016L134.02 29.56C136.378 31.643 138.151 34.5718 138.151 38.763V38.9019C138.151 39.2775 138.142 39.6499 138.117 40.016H157.807V50.7623H168.269V40.016H174.957V31.1223H168.269H168.266ZM157.804 31.1223H144.571L157.804 15.6072V31.1223Z" fill="#2272AF"/>
<path d="M201.092 50.857H191.416L171.277 0.691757H183.374L196.396 35.7711L209.418 0.691757H221.231L201.095 50.857H201.092Z" fill="#F5824F"/>
<path d="M249.692 35.203H223.149C224.216 40.1138 227.631 42.6734 232.469 42.6734C236.099 42.6734 238.731 41.534 241.719 38.7599L247.908 44.2388C244.352 48.6509 239.226 51.3556 232.327 51.3556C220.871 51.3556 212.403 43.314 212.403 31.6462V31.5041C212.403 20.619 220.157 11.6527 231.26 11.6527C243.998 11.6527 249.831 21.5437 249.831 32.3594V32.5015C249.831 33.5682 249.758 34.2089 249.688 35.2062L249.692 35.203ZM231.26 20.3318C226.779 20.3318 223.859 23.5352 223.007 28.4428H239.302C238.661 23.6046 235.815 20.3318 231.26 20.3318Z" fill="#F5824F"/>
<path d="M265.062 51.141C258.443 51.141 253.962 48.5089 253.962 39.6846V21.61H249.408V12.3596H253.962V2.61378H264.778V12.3628H273.744V21.6131H264.778V37.9077C264.778 40.3979 265.844 41.6066 268.265 41.6066C270.256 41.6066 272.036 41.108 273.602 40.2558V48.9381C271.326 50.2889 268.691 51.1442 265.065 51.1442L265.062 51.141Z" fill="#F5824F"/>
<path d="M291.531 51.2104C286.194 51.2104 280.217 49.4304 275.164 45.4475L279.787 38.3306C283.916 41.3194 288.255 42.8848 291.812 42.8848C294.943 42.8848 296.366 41.7455 296.366 40.0381V39.896C296.366 37.5479 292.667 36.7652 288.467 35.4839C283.13 33.9185 277.083 31.4284 277.083 24.0275V23.8855C277.083 16.1311 283.344 11.7884 291.029 11.7884C295.867 11.7884 301.132 13.4263 305.26 16.2005L301.132 23.6708C297.36 21.4648 293.589 20.114 290.815 20.114C288.04 20.114 286.829 21.2533 286.829 22.7461V22.8881C286.829 25.0216 290.458 26.0189 294.583 27.4423C299.92 29.2223 306.109 31.7819 306.109 38.7567V38.8987C306.109 47.3664 299.775 51.2073 291.522 51.2073L291.531 51.2104Z" fill="#F5824F"/>
<path d="M30.3436 50.857H20.6672L0.528564 0.691757H12.6257L25.6475 35.7711L38.6661 0.691757H50.4792L30.3436 50.857Z" fill="#F5824F"/>
<path d="M78.9434 35.203H52.4011C53.4678 40.1138 56.8827 42.6734 61.7209 42.6734C65.3503 42.6734 67.9824 41.534 70.9712 38.7599L77.1602 44.2388C73.6034 48.6509 68.4779 51.3556 61.5788 51.3556C50.1224 51.3556 41.6548 43.314 41.6548 31.6462V31.5041C41.6548 20.619 49.4092 11.6527 60.5121 11.6527C73.2499 11.6527 79.0822 21.5437 79.0822 32.3594V32.5015C79.0822 33.5682 79.0096 34.2089 78.9402 35.2062L78.9434 35.203ZM60.5121 20.3318C56.0305 20.3318 53.1112 23.5352 52.2591 28.4428H68.5537C67.913 23.6046 65.0663 20.3318 60.5121 20.3318Z" fill="#F5824F"/>
<path d="M94.3134 51.141C87.6952 51.141 83.2136 48.5089 83.2136 39.6846V21.61H78.6594V12.3596H83.2136V2.61378H94.0293V12.3628H102.996V21.6131H94.0293V37.9077C94.0293 40.3979 95.0961 41.6066 97.5167 41.6066C99.5082 41.6066 101.288 41.108 102.854 40.2558V48.9381C100.578 50.2889 97.9428 51.1442 94.3165 51.1442L94.3134 51.141Z" fill="#F5824F"/>
<path d="M120.78 51.2104C115.443 51.2104 109.465 49.4304 104.412 45.4475L109.036 38.3306C113.164 41.3194 117.504 42.8848 121.06 42.8848C124.191 42.8848 125.615 41.7455 125.615 40.0381V39.896C125.615 37.5479 121.916 36.7652 117.715 35.4839C112.378 33.9185 106.331 31.4284 106.331 24.0275V23.8855C106.331 16.1311 112.593 11.7884 120.278 11.7884C125.116 11.7884 130.38 13.4263 134.508 16.2005L130.38 23.6708C126.609 21.4648 122.837 20.114 120.063 20.114C117.289 20.114 116.077 21.2533 116.077 22.7461V22.8881C116.077 25.0216 119.707 26.0189 123.831 27.4423C129.168 29.2223 135.357 31.7819 135.357 38.7567V38.8987C135.357 47.3664 129.023 51.2073 120.77 51.2073L120.78 51.2104Z" fill="#F5824F"/>
</g>
<defs>
<clipPath id="clip0_2330_54578">
<rect width="305.82" height="50.8122" fill="white" transform="translate(0.528564 0.593903)"/>
</clipPath>
</defs>
</svg>
