<svg width="45" height="45" viewBox="0 0 45 45" fill="none" xmlns="http://www.w3.org/2000/svg">
<g filter="url(#filter0_d_2330_61198)">
<rect x="2.39844" y="1.18018" width="40" height="40" rx="8" fill="#D92D20"/>
<path d="M25.7318 16.1802V15.5135C25.7318 14.5801 25.7318 14.1134 25.5501 13.7568C25.3903 13.4432 25.1354 13.1883 24.8218 13.0285C24.4652 12.8468 23.9985 12.8468 23.0651 12.8468H21.7318C20.7983 12.8468 20.3316 12.8468 19.9751 13.0285C19.6615 13.1883 19.4065 13.4432 19.2468 13.7568C19.0651 14.1134 19.0651 14.5801 19.0651 15.5135V16.1802M20.7318 20.7635V24.9302M24.0651 20.7635V24.9302M14.8984 16.1802H29.8984M28.2318 16.1802V25.5135C28.2318 26.9136 28.2318 27.6137 27.9593 28.1485C27.7196 28.6189 27.3372 29.0013 26.8667 29.241C26.332 29.5135 25.6319 29.5135 24.2318 29.5135H20.5651C19.165 29.5135 18.4649 29.5135 17.9301 29.241C17.4597 29.0013 17.0773 28.6189 16.8376 28.1485C16.5651 27.6137 16.5651 26.9136 16.5651 25.5135V16.1802" stroke="white" stroke-width="1.66667" stroke-linecap="round" stroke-linejoin="round"/>
</g>
<defs>
<filter id="filter0_d_2330_61198" x="0.398438" y="0.180176" width="44" height="44" filterUnits="userSpaceOnUse" color-interpolation-filters="sRGB">
<feFlood flood-opacity="0" result="BackgroundImageFix"/>
<feColorMatrix in="SourceAlpha" type="matrix" values="0 0 0 0 0 0 0 0 0 0 0 0 0 0 0 0 0 0 127 0" result="hardAlpha"/>
<feOffset dy="1"/>
<feGaussianBlur stdDeviation="1"/>
<feComposite in2="hardAlpha" operator="out"/>
<feColorMatrix type="matrix" values="0 0 0 0 0.109804 0 0 0 0 0.109804 0 0 0 0 0.109804 0 0 0 0.05 0"/>
<feBlend mode="normal" in2="BackgroundImageFix" result="effect1_dropShadow_2330_61198"/>
<feBlend mode="normal" in="SourceGraphic" in2="effect1_dropShadow_2330_61198" result="shape"/>
</filter>
</defs>
</svg>
