<svg width="24" height="25" viewBox="0 0 24 25" fill="none" xmlns="http://www.w3.org/2000/svg">
<path d="M15.5 12.3047H14.5L13 15.3047L11 9.30469L9.5 12.3047H8.5M11.9932 5.9405C9.9938 3.60309 6.65975 2.97433 4.15469 5.1147C1.64964 7.25507 1.29697 10.8337 3.2642 13.3651C4.75009 15.2771 8.97129 19.1156 10.948 20.8796C11.3114 21.2038 11.4931 21.366 11.7058 21.4298C11.8905 21.4852 12.0958 21.4852 12.2805 21.4298C12.4932 21.366 12.6749 21.2038 13.0383 20.8796C15.015 19.1156 19.2362 15.2771 20.7221 13.3651C22.6893 10.8337 22.3797 7.23256 19.8316 5.1147C17.2835 2.99684 13.9925 3.60309 11.9932 5.9405Z" stroke="#472111" stroke-width="2" stroke-linecap="round" stroke-linejoin="round"/>
</svg>
