<svg width="28" height="28" viewBox="0 0 28 28" fill="none" xmlns="http://www.w3.org/2000/svg">
<g id="book-open-01">
<path id="Icon" d="M13.9997 24.5L13.8829 24.3249C13.0725 23.1093 12.6673 22.5015 12.132 22.0615C11.658 21.6719 11.1119 21.3796 10.5249 21.2014C9.8618 21 9.1313 21 7.6703 21H6.06634C4.75955 21 4.10616 21 3.60703 20.7457C3.16799 20.522 2.81103 20.165 2.58733 19.726C2.33301 19.2268 2.33301 18.5735 2.33301 17.2667V7.23333C2.33301 5.92654 2.33301 5.27315 2.58733 4.77402C2.81103 4.33498 3.16799 3.97802 3.60703 3.75432C4.10616 3.5 4.75955 3.5 6.06634 3.5H6.53301C9.14659 3.5 10.4534 3.5 11.4516 4.00864C12.3297 4.45605 13.0436 5.16995 13.491 6.04804C13.9997 7.0463 13.9997 8.35309 13.9997 10.9667M13.9997 24.5V10.9667M13.9997 24.5L14.1164 24.3249C14.9268 23.1093 15.332 22.5015 15.8674 22.0615C16.3413 21.6719 16.8874 21.3796 17.4745 21.2014C18.1375 21 18.868 21 20.329 21H21.933C23.2398 21 23.8932 21 24.3923 20.7457C24.8314 20.522 25.1883 20.165 25.412 19.726C25.6663 19.2268 25.6663 18.5735 25.6663 17.2667V7.23333C25.6663 5.92654 25.6663 5.27315 25.412 4.77402C25.1883 4.33498 24.8314 3.97802 24.3923 3.75432C23.8932 3.5 23.2398 3.5 21.933 3.5H21.4663C18.8528 3.5 17.546 3.5 16.5477 4.00864C15.6696 4.45605 14.9557 5.16995 14.5083 6.04804C13.9997 7.0463 13.9997 8.35309 13.9997 10.9667" stroke="#344054" stroke-width="2" stroke-linecap="round" stroke-linejoin="round"/>
</g>
</svg>
