<svg width="24" height="25" viewBox="0 0 24 25" fill="none" xmlns="http://www.w3.org/2000/svg">
<g id="building-05">
<path id="Icon" d="M13 11.8887H17.8C18.9201 11.8887 19.4802 11.8887 19.908 12.1067C20.2843 12.2984 20.5903 12.6044 20.782 12.9807C21 13.4085 21 13.9686 21 15.0887V21.8887M13 21.8887V7.08867C13 5.96857 13 5.40851 12.782 4.98069C12.5903 4.60437 12.2843 4.29841 11.908 4.10666C11.4802 3.88867 10.9201 3.88867 9.8 3.88867H6.2C5.0799 3.88867 4.51984 3.88867 4.09202 4.10666C3.71569 4.29841 3.40973 4.60437 3.21799 4.98069C3 5.40851 3 5.96857 3 7.08867V21.8887M22 21.8887H2M6.5 7.88867H9.5M6.5 11.8887H9.5M6.5 15.8887H9.5" stroke="#403F3F" stroke-width="2" stroke-linecap="round" stroke-linejoin="round"/>
</g>
</svg>
