<svg width="24" height="25" viewBox="0 0 24 25" fill="none" xmlns="http://www.w3.org/2000/svg">
<path d="M15 21.8047V16.4047C15 15.8446 15 15.5646 14.891 15.3507C14.7951 15.1625 14.6422 15.0096 14.454 14.9137C14.2401 14.8047 13.9601 14.8047 13.4 14.8047H10.6C10.0399 14.8047 9.75992 14.8047 9.54601 14.9137C9.35785 15.0096 9.20487 15.1625 9.10899 15.3507C9 15.5646 9 15.8446 9 16.4047V21.8047M19 21.8047V7.00469C19 5.88458 19 5.32453 18.782 4.89671C18.5903 4.52038 18.2843 4.21442 17.908 4.02267C17.4802 3.80469 16.9201 3.80469 15.8 3.80469H8.2C7.07989 3.80469 6.51984 3.80469 6.09202 4.02267C5.71569 4.21442 5.40973 4.52038 5.21799 4.89671C5 5.32453 5 5.88458 5 7.00469V21.8047M21 21.8047H3M9.5 8.80469H9.51M14.5 8.80469H14.51M10 8.80469C10 9.08083 9.77614 9.30469 9.5 9.30469C9.22386 9.30469 9 9.08083 9 8.80469C9 8.52855 9.22386 8.30469 9.5 8.30469C9.77614 8.30469 10 8.52855 10 8.80469ZM15 8.80469C15 9.08083 14.7761 9.30469 14.5 9.30469C14.2239 9.30469 14 9.08083 14 8.80469C14 8.52855 14.2239 8.30469 14.5 8.30469C14.7761 8.30469 15 8.52855 15 8.80469Z" stroke="#403F3F" stroke-width="2" stroke-linecap="round" stroke-linejoin="round"/>
</svg>
