<svg width="25" height="25" viewBox="0 0 25 25" fill="none" xmlns="http://www.w3.org/2000/svg">
<path d="M11.5 4.80467H7.3C5.61984 4.80467 4.77976 4.80467 4.13803 5.13165C3.57354 5.41927 3.1146 5.87821 2.82698 6.4427C2.5 7.08443 2.5 7.92451 2.5 9.60467V18.0047C2.5 19.6848 2.5 20.5249 2.82698 21.1666C3.1146 21.7311 3.57354 22.1901 4.13803 22.4777C4.77976 22.8047 5.61984 22.8047 7.3 22.8047H15.7C17.3802 22.8047 18.2202 22.8047 18.862 22.4777C19.4265 22.1901 19.8854 21.7311 20.173 21.1666C20.5 20.5249 20.5 19.6848 20.5 18.0047V13.8047M8.49997 16.8047H10.1745C10.6637 16.8047 10.9083 16.8047 11.1385 16.7494C11.3425 16.7004 11.5376 16.6196 11.7166 16.51C11.9184 16.3863 12.0914 16.2133 12.4373 15.8674L22 6.30467C22.8284 5.47624 22.8284 4.1331 22 3.30467C21.1716 2.47624 19.8284 2.47624 19 3.30467L9.43723 12.8674C9.09133 13.2133 8.91838 13.3863 8.79469 13.5881C8.68504 13.767 8.60423 13.9621 8.55523 14.1662C8.49997 14.3964 8.49997 14.641 8.49997 15.1302V16.8047Z" stroke="#403F3F" stroke-width="2" stroke-linecap="round" stroke-linejoin="round"/>
</svg>
