<svg width="25" height="25" viewBox="0 0 25 25" fill="none" xmlns="http://www.w3.org/2000/svg">
<g id="edit-03">
<path id="Icon" d="M12.5 20.8887H21.5M3.50003 20.8887H5.17457C5.66376 20.8887 5.90835 20.8887 6.13852 20.8334C6.34259 20.7844 6.53768 20.7036 6.71663 20.5939C6.91846 20.4703 7.09141 20.2973 7.43732 19.9514L20.0001 7.38866C20.8285 6.56023 20.8285 5.21709 20.0001 4.38866C19.1716 3.56023 17.8285 3.56024 17.0001 4.38866L4.43729 16.9514C4.09139 17.2973 3.91843 17.4703 3.79475 17.6721C3.68509 17.851 3.60428 18.0461 3.55529 18.2502C3.50003 18.4804 3.50003 18.725 3.50003 19.2141V20.8887Z" stroke="#403F3F" stroke-width="2" stroke-linecap="round" stroke-linejoin="round"/>
</g>
</svg>
