<svg width="24" height="25" viewBox="0 0 24 25" fill="none" xmlns="http://www.w3.org/2000/svg">
<g id="globe-04">
<path id="Icon" d="M3.07598 8.37149L7.36402 11.4343C7.58715 11.5937 7.69872 11.6734 7.81548 11.6917C7.91821 11.7079 8.02343 11.6916 8.11648 11.6452C8.22223 11.5924 8.30449 11.4827 8.46901 11.2633L9.37511 10.0552C9.42164 9.99316 9.4449 9.96214 9.47224 9.93538C9.49652 9.91163 9.52315 9.89041 9.55173 9.87205C9.58392 9.85137 9.61935 9.83563 9.6902 9.80414L13.5588 8.08476C13.7192 8.01349 13.7993 7.97785 13.8598 7.9222C13.9133 7.87297 13.9554 7.81267 13.9832 7.74551C14.0146 7.66958 14.0204 7.58203 14.0321 7.40693L14.3154 3.15808M13.5 14.3887L16.116 15.5098C16.4195 15.6399 16.5713 15.7049 16.6517 15.813C16.7222 15.9078 16.7569 16.0244 16.7496 16.1424C16.7413 16.2768 16.6497 16.4141 16.4665 16.6889L15.2375 18.5324C15.1507 18.6627 15.1072 18.7278 15.0499 18.775C14.9991 18.8167 14.9406 18.848 14.8777 18.8671C14.8067 18.8887 14.7284 18.8887 14.5719 18.8887H12.5766C12.3693 18.8887 12.2656 18.8887 12.1774 18.854C12.0995 18.8234 12.0305 18.7737 11.9768 18.7094C11.916 18.6367 11.8832 18.5384 11.8177 18.3417L11.1048 16.203C11.0661 16.087 11.0468 16.029 11.0417 15.97C11.0372 15.9178 11.0409 15.8651 11.0528 15.814C11.0662 15.7564 11.0935 15.7017 11.1482 15.5923L11.6897 14.5093C11.7997 14.2892 11.8547 14.1792 11.9395 14.1109C12.0141 14.0507 12.1046 14.0132 12.1999 14.003C12.3081 13.9914 12.4248 14.0303 12.6582 14.1081L13.5 14.3887ZM22 12.8887C22 18.4115 17.5228 22.8887 12 22.8887C6.47715 22.8887 2 18.4115 2 12.8887C2 7.36582 6.47715 2.88867 12 2.88867C17.5228 2.88867 22 7.36582 22 12.8887Z" stroke="#403F3F" stroke-width="2" stroke-linecap="round" stroke-linejoin="round"/>
</g>
</svg>
