<svg width="21" height="21" viewBox="0 0 21 21" fill="none" xmlns="http://www.w3.org/2000/svg">
<path d="M14.7 19.5H5.43137C4.82555 19.5 4.52265 19.5 4.38238 19.3802C4.26068 19.2763 4.19609 19.1203 4.20865 18.9608C4.22312 18.7769 4.43731 18.5627 4.86569 18.1343L13.3686 9.63137C13.7646 9.23536 13.9627 9.03735 14.191 8.96316C14.3918 8.8979 14.6082 8.8979 14.809 8.96316C15.0373 9.03735 15.2354 9.23535 15.6314 9.63137L19.5 13.5V14.7M14.7 19.5C16.3802 19.5 17.2202 19.5 17.862 19.173C18.4265 18.8854 18.8854 18.4265 19.173 17.862C19.5 17.2202 19.5 16.3802 19.5 14.7M14.7 19.5H6.3C4.61984 19.5 3.77976 19.5 3.13803 19.173C2.57354 18.8854 2.1146 18.4265 1.82698 17.862C1.5 17.2202 1.5 16.3802 1.5 14.7V6.3C1.5 4.61984 1.5 3.77976 1.82698 3.13803C2.1146 2.57354 2.57354 2.1146 3.13803 1.82698C3.77976 1.5 4.61984 1.5 6.3 1.5H14.7C16.3802 1.5 17.2202 1.5 17.862 1.82698C18.4265 2.1146 18.8854 2.57354 19.173 3.13803C19.5 3.77976 19.5 4.61984 19.5 6.3V14.7M9 7C9 8.10457 8.10457 9 7 9C5.89543 9 5 8.10457 5 7C5 5.89543 5.89543 5 7 5C8.10457 5 9 5.89543 9 7Z" stroke="#403F3F" stroke-width="2" stroke-linecap="round" stroke-linejoin="round"/>
</svg>
