<svg width="29" height="29" viewBox="0 0 29 29" fill="none" xmlns="http://www.w3.org/2000/svg">
<path d="M20.3949 10.7226C20.3948 10.1255 20.167 9.52833 19.7114 9.07274C19.2558 8.61713 18.6587 8.38932 18.0615 8.38932M18.0615 17.7227C21.9275 17.7227 25.0615 14.5886 25.0615 10.7227C25.0615 6.85666 21.9275 3.72266 18.0615 3.72266C14.1955 3.72266 11.0615 6.85666 11.0615 10.7227C11.0615 11.0419 11.0829 11.3562 11.1243 11.6642C11.1924 12.1707 11.2264 12.4239 11.2035 12.5842C11.1797 12.7511 11.1493 12.841 11.067 12.9882C10.988 13.1295 10.8489 13.2687 10.5705 13.547L4.60826 19.5093C4.40648 19.711 4.30559 19.8119 4.23344 19.9297C4.16948 20.034 4.12234 20.1478 4.09376 20.2669C4.06152 20.4012 4.06152 20.5438 4.06152 20.8292V22.856C4.06152 23.5094 4.06152 23.8361 4.18868 24.0856C4.30053 24.3052 4.47901 24.4836 4.69853 24.5955C4.9481 24.7227 5.2748 24.7227 5.92819 24.7227H8.72819V22.3893H11.0615V20.056H13.3949L15.2372 18.2137C15.5155 17.9353 15.6547 17.7962 15.796 17.7172C15.9432 17.6349 16.0331 17.6045 16.2 17.5807C16.3602 17.5577 16.6135 17.5918 17.12 17.6599C17.4279 17.7013 17.7422 17.7227 18.0615 17.7227Z" stroke="#344054" stroke-width="2" stroke-linecap="round" stroke-linejoin="round"/>
</svg>
