<svg width="24" height="25" viewBox="0 0 24 25" fill="none" xmlns="http://www.w3.org/2000/svg">
<g id="line-chart-up-03">
<path id="Icon" d="M17 9.88867L11.5657 15.323C11.3677 15.521 11.2687 15.62 11.1545 15.6571C11.0541 15.6897 10.9459 15.6897 10.8455 15.6571C10.7313 15.62 10.6323 15.521 10.4343 15.323L8.56569 13.4544C8.36768 13.2563 8.26867 13.1573 8.15451 13.1203C8.05409 13.0876 7.94591 13.0876 7.84549 13.1203C7.73133 13.1573 7.63232 13.2563 7.43431 13.4544L3 17.8887M17 9.88867H13M17 9.88867V13.8887M7.8 21.8887H16.2C17.8802 21.8887 18.7202 21.8887 19.362 21.5617C19.9265 21.2741 20.3854 20.8151 20.673 20.2506C21 19.6089 21 18.7688 21 17.0887V8.68867C21 7.00851 21 6.16844 20.673 5.5267C20.3854 4.96221 19.9265 4.50327 19.362 4.21565C18.7202 3.88867 17.8802 3.88867 16.2 3.88867H7.8C6.11984 3.88867 5.27976 3.88867 4.63803 4.21565C4.07354 4.50327 3.6146 4.96221 3.32698 5.5267C3 6.16844 3 7.00851 3 8.68867V17.0887C3 18.7688 3 19.6089 3.32698 20.2506C3.6146 20.8151 4.07354 21.2741 4.63803 21.5617C5.27976 21.8887 6.11984 21.8887 7.8 21.8887Z" stroke="#403F3F" stroke-width="2" stroke-linecap="round" stroke-linejoin="round"/>
</g>
</svg>
