<svg width="24" height="25" viewBox="0 0 24 25" fill="none" xmlns="http://www.w3.org/2000/svg">
<g id="lock-01">
<path id="Icon" d="M17 10.8887V8.88867C17 6.12725 14.7614 3.88867 12 3.88867C9.23858 3.88867 7 6.12725 7 8.88867V10.8887M12 15.3887V17.3887M8.8 21.8887H15.2C16.8802 21.8887 17.7202 21.8887 18.362 21.5617C18.9265 21.2741 19.3854 20.8151 19.673 20.2506C20 19.6089 20 18.7688 20 17.0887V15.6887C20 14.0085 20 13.1684 19.673 12.5267C19.3854 11.9622 18.9265 11.5033 18.362 11.2157C17.7202 10.8887 16.8802 10.8887 15.2 10.8887H8.8C7.11984 10.8887 6.27976 10.8887 5.63803 11.2157C5.07354 11.5033 4.6146 11.9622 4.32698 12.5267C4 13.1684 4 14.0085 4 15.6887V17.0887C4 18.7688 4 19.6089 4.32698 20.2506C4.6146 20.8151 5.07354 21.2741 5.63803 21.5617C6.27976 21.8887 7.11984 21.8887 8.8 21.8887Z" stroke="#403F3F" stroke-width="2" stroke-linecap="round" stroke-linejoin="round"/>
</g>
</svg>
