<svg width="25" height="24" viewBox="0 0 25 24" fill="none" xmlns="http://www.w3.org/2000/svg">
<path d="M12.5742 8V16M8.57422 12H16.5742M8.37422 21H16.7742C18.4544 21 19.2945 21 19.9362 20.673C20.5007 20.3854 20.9596 19.9265 21.2472 19.362C21.5742 18.7202 21.5742 17.8802 21.5742 16.2V7.8C21.5742 6.11984 21.5742 5.27976 21.2472 4.63803C20.9596 4.07354 20.5007 3.6146 19.9362 3.32698C19.2945 3 18.4544 3 16.7742 3H8.37422C6.69406 3 5.85398 3 5.21225 3.32698C4.64776 3.6146 4.18882 4.07354 3.9012 4.63803C3.57422 5.27976 3.57422 6.11984 3.57422 7.8V16.2C3.57422 17.8802 3.57422 18.7202 3.9012 19.362C4.18882 19.9265 4.64776 20.3854 5.21225 20.673C5.85398 21 6.69406 21 8.37422 21Z" stroke="#472111" stroke-width="2" stroke-linecap="round" stroke-linejoin="round"/>
</svg>
